<?xml version="1.0" encoding="UTF-8"?>
<!DOCTYPE svg PUBLIC "-//W3C//DTD SVG 1.1//EN" "http://www.w3.org/Graphics/SVG/1.1/DTD/svg11.dtd">
<!-- Creator: CorelDRAW -->
<svg xmlns="http://www.w3.org/2000/svg" xml:space="preserve" width="148mm" height="210mm" version="1.1" style="shape-rendering:geometricPrecision; text-rendering:geometricPrecision; image-rendering:optimizeQuality; fill-rule:evenodd; clip-rule:evenodd"
viewBox="0 0 14800 21000"
 xmlns:xlink="http://www.w3.org/1999/xlink"
 xmlns:xodm="http://www.corel.com/coreldraw/odm/2003">
 <defs>
  <style type="text/css">
   <![CDATA[
    .str0 {stroke:#324131;stroke-width:400;stroke-miterlimit:22.9256}
    .fil2 {fill:none}
    .fil0 {fill:#E2ECB3}
    .fil3 {fill:#6E4D3C}
    .fil4 {fill:#324131}
    .fil1 {fill:#4B332C;fill-rule:nonzero}
   ]]>
  </style>
 </defs>
 <g id="Layer_x0020_1">
  <metadata id="CorelCorpID_0Corel-Layer"/>
  <circle class="fil0" cx="7251.07" cy="10087.17" r="6035.12"/>
  <g>
   <path class="fil1" d="M9104.29 13123.59c140.46,59.47 272.93,96.5 423.8,118.83l-56.82 395.94c-1711.81,-253.08 -2399.58,-2347.41 -1151.55,-3566.69l138.81 143.99 -138.78 -144.01 90.36 -82.15 260.26 303.76c-905.19,778.14 -772.62,2277.7 433.92,2830.33z"/>
  </g>
  <path class="fil2 str0" d="M9349.07 7141.64c-28.42,-193.66 -82.09,-382.78 -159.66,-562.5 -490.21,-1135.79 -1808.34,-1659.12 -2944.13,-1168.91 -725.09,312.95 -1231.78,984.62 -1333.59,1767.78"/>
  <path class="fil2 str0" d="M8739.86 11350.58c155.24,55.34 317.08,90.11 481.36,103.39 1038.22,83.95 1947.92,-689.64 2031.87,-1727.86 72.51,-896.72 -498.44,-1719.82 -1363.75,-1966.01"/>
  <rect class="fil3" x="2973.95" y="13638.59" width="8509.78" height="194.47"/>
  <path class="fil2 str0" d="M5756.64 11355.11c-155.24,55.34 -317.08,90.11 -481.36,103.39 -1038.22,83.95 -1947.92,-689.64 -2031.87,-1727.86 -72.51,-896.72 498.44,-1719.82 1363.75,-1966.01"/>
  <path class="fil4" d="M9557.01 7446.75c15.4,-137.4 30.78,-274.8 46.19,-412.2l46.17 -412.19c-130.38,60.63 -260.77,121.27 -391.15,181.9l-391.15 181.9c114.99,76.76 229.98,153.53 344.97,230.3l344.97 230.29z"/>
  <path class="fil4" d="M4735.25 8162.22c71.35,-118.44 142.68,-236.87 214.03,-355.29l214.02 -355.29c-143.79,0.67 -287.58,1.34 -431.37,2.02l-431.37 2.02c72.44,117.75 144.9,235.51 217.34,353.27l217.35 353.27z"/>
  <path class="fil4" d="M8917.62 11800.45c29.49,-135.09 58.98,-270.17 88.47,-405.24l88.47 -405.23c-135.95,46.86 -271.89,93.72 -407.83,140.57l-407.83 140.57c106.44,88.22 212.9,176.44 319.35,264.67l319.37 264.66z"/>
  <g>
   <path class="fil1" d="M5400.98 13498.08c-174.12,73.61 -337.31,119.36 -524.32,147.01l-56.82 -395.94c1443.44,-213.61 1946.58,-2013.12 857.72,-2949.16l260.26 -303.76 90.36 82.15 -138.78 144.01 138.81 -143.99c1050.51,1026.32 753.41,2747.53 -529.79,3375.05l-97.44 44.63z"/>
  </g>
 </g>
</svg>
